<svg width="64" height="64" viewBox="0 0 64 64" fill="none" xmlns="http://www.w3.org/2000/svg">
<rect width="64" height="64" rx="8" fill="#1E40AF"/>
<path d="M32 12C20.96 12 12 20.96 12 32s8.96 20 20 20 20-8.96 20-20S43.04 12 32 12zm0 36c-8.84 0-16-7.16-16-16s7.16-16 16-16 16 7.16 16 16-7.16 16-16 16z" fill="white"/>
<path d="M29 36.5l-4.5-4.5L22 34.5l7 7 14-14-2.5-2.5L29 36.5z" fill="white"/>
<text x="32" y="58" text-anchor="middle" fill="white" font-size="8" font-family="Arial, sans-serif">CERTIFIED</text>
</svg>
