<svg width="200" height="80" viewBox="0 0 200 80" fill="none" xmlns="http://www.w3.org/2000/svg">
  <!-- Background Circle for Brand Identity -->
  <circle cx="40" cy="40" r="35" fill="#1E40AF" opacity="0.1"/>
  
  <!-- Fashion Icon - Stylized Shirt -->
  <g transform="translate(15, 15)">
    <!-- Shirt Body -->
    <path d="M20 15 L20 45 L45 45 L45 15 L40 12 L35 15 L30 12 L25 15 Z" 
          fill="#1E40AF" 
          stroke="#F59E0B" 
          stroke-width="1.5"/>
    
    <!-- Collar -->
    <path d="M30 12 L32.5 8 L37.5 8 L40 12" 
          fill="none" 
          stroke="#1E40AF" 
          stroke-width="2" 
          stroke-linecap="round"/>
    
    <!-- Decorative Elements -->
    <circle cx="25" cy="25" r="2" fill="#F59E0B"/>
    <circle cx="40" cy="25" r="2" fill="#F59E0B"/>
    <line x1="22" y1="35" x2="43" y2="35" stroke="#F59E0B" stroke-width="1.5" opacity="0.7"/>
  </g>
  
  <!-- FINO Text -->
  <g transform="translate(85, 0)">
    <!-- F -->
    <path d="M0 15 L0 55 M0 15 L25 15 M0 35 L20 35" 
          stroke="#1E40AF" 
          stroke-width="4" 
          stroke-linecap="round" 
          stroke-linejoin="round"/>
    
    <!-- I -->
    <path d="M35 15 L35 55 M30 15 L40 15 M30 55 L40 55" 
          stroke="#1E40AF" 
          stroke-width="4" 
          stroke-linecap="round" 
          stroke-linejoin="round"/>
    
    <!-- N -->
    <path d="M50 55 L50 15 L70 55 L70 15" 
          stroke="#1E40AF" 
          stroke-width="4" 
          stroke-linecap="round" 
          stroke-linejoin="round"/>
    
    <!-- O -->
    <ellipse cx="90" cy="35" rx="12" ry="20" 
             fill="none" 
             stroke="#1E40AF" 
             stroke-width="4"/>
  </g>
  
  <!-- Accent Elements for Gen Z Appeal -->
  <circle cx="170" cy="20" r="3" fill="#F59E0B"/>
  <circle cx="180" cy="30" r="2" fill="#F59E0B" opacity="0.7"/>
  <circle cx="175" cy="40" r="1.5" fill="#F59E0B" opacity="0.5"/>
  
  <!-- Modern Underline -->
  <rect x="85" y="62" width="80" height="3" rx="1.5" fill="#F59E0B" opacity="0.8"/>
</svg>
