<svg width="400" height="150" viewBox="0 0 400 150" fill="none" xmlns="http://www.w3.org/2000/svg">
  <!-- Background gradient for professional look -->
  <defs>
    <linearGradient id="bgGradient" x1="0%" y1="0%" x2="100%" y2="100%">
      <stop offset="0%" style="stop-color:#F8FAFC;stop-opacity:1" />
      <stop offset="100%" style="stop-color:#E2E8F0;stop-opacity:1" />
    </linearGradient>
  </defs>
  
  <rect width="400" height="150" fill="url(#bgGradient)" rx="12"/>
  
  <!-- Fashion Icon - Premium version -->
  <g transform="translate(30, 35)">
    <!-- Stylized F as fashion symbol -->
    <rect x="0" y="0" width="70" height="80" rx="10" fill="#1E40AF" filter="drop-shadow(0 4px 8px rgba(30, 64, 175, 0.2))"/>
    <rect x="15" y="15" width="40" height="18" fill="#F59E0B"/>
    <rect x="15" y="40" width="32" height="10" fill="#F59E0B"/>
    <circle cx="55" cy="25" r="6" fill="#FFFFFF"/>
    
    <!-- Additional detail for premium look -->
    <rect x="15" y="60" width="25" height="4" fill="#F59E0B" opacity="0.7"/>
  </g>
  
  <!-- FINO Text - Premium -->
  <g transform="translate(120, 45)" font-family="'Poppins', sans-serif" font-weight="800" font-size="56" fill="#1E40AF">
    <text x="0" y="56">FINO</text>
  </g>
  
  <!-- Tagline - Premium -->
  <g transform="translate(120, 95)" font-family="'Inter', sans-serif" font-weight="500" font-size="16" fill="#64748B">
    <text x="0" y="16">FASHION STORE</text>
  </g>
  
  <!-- Professional subtitle for report -->
  <g transform="translate(120, 115)" font-family="'Inter', sans-serif" font-weight="300" font-size="12" fill="#94A3B8">
    <text x="0" y="12">E-COMMERCE PLATFORM</text>
  </g>
  
  <!-- Decorative professional elements -->
  <g transform="translate(320, 30)" opacity="0.15">
    <rect x="0" y="0" width="60" height="2" fill="#1E40AF"/>
    <rect x="0" y="20" width="45" height="2" fill="#F59E0B"/>
    <rect x="0" y="40" width="50" height="2" fill="#1E40AF"/>
    <rect x="0" y="60" width="35" height="2" fill="#F59E0B"/>
    <rect x="0" y="80" width="40" height="2" fill="#1E40AF"/>
  </g>
</svg>
